<svg width="128" height="128" viewBox="0 0 128 128" fill="none" xmlns="http://www.w3.org/2000/svg">
<path d="M117.87 66.1999C117.87 66.1999 92.74 100.67 61.75 100.67C30.76 100.67 5.62 66.1999 5.62 66.1999C5.62 66.1999 30.75 31.6599 61.74 31.6599C92.73 31.6599 117.86 66.1999 117.86 66.1999H117.87Z" fill="#153385" stroke="#101C3F" stroke-miterlimit="10"/>
<path d="M121.75 62.04C121.75 62.04 96.62 96.51 65.63 96.51C34.64 96.51 9.5 62.04 9.5 62.04C9.5 62.04 34.63 27.5 65.63 27.5C96.63 27.5 121.75 62.04 121.75 62.04Z" fill="white" stroke="#101C3F" stroke-miterlimit="10"/>
<path d="M65.63 86.53C79.172 86.53 90.15 75.552 90.15 62.01C90.15 48.468 79.172 37.49 65.63 37.49C52.088 37.49 41.11 48.468 41.11 62.01C41.11 75.552 52.088 86.53 65.63 86.53Z" fill="#48EFCF" stroke="#101C3F" stroke-miterlimit="10"/>
<path d="M65.63 75.55C73.1079 75.55 79.17 69.4879 79.17 62.01C79.17 54.532 73.1079 48.47 65.63 48.47C58.152 48.47 52.09 54.532 52.09 62.01C52.09 69.4879 58.152 75.55 65.63 75.55Z" fill="#0B64DD"/>
</svg>
